<?xml version="1.0" encoding="UTF-8" standalone="no"?>
<!-- Created with Inkscape (http://www.inkscape.org/) -->

<svg
   width="1080mm"
   height="1080mm"
   viewBox="0 0 1080 1080"
   version="1.1"
   id="svg12324"
   inkscape:version="1.2.2 (b0a8486541, 2022-12-01)"
   sodipodi:docname="network-workgroup.svg"
   xmlns:inkscape="http://www.inkscape.org/namespaces/inkscape"
   xmlns:sodipodi="http://sodipodi.sourceforge.net/DTD/sodipodi-0.dtd"
   xmlns:xlink="http://www.w3.org/1999/xlink"
   xmlns="http://www.w3.org/2000/svg"
   xmlns:svg="http://www.w3.org/2000/svg">
  <sodipodi:namedview
     id="namedview12326"
     pagecolor="#ffffff"
     bordercolor="#666666"
     borderopacity="1.0"
     inkscape:showpageshadow="2"
     inkscape:pageopacity="0.0"
     inkscape:pagecheckerboard="0"
     inkscape:deskcolor="#d1d1d1"
     inkscape:document-units="mm"
     showgrid="false"
     inkscape:zoom="0.13417287"
     inkscape:cx="592.5192"
     inkscape:cy="3342.7026"
     inkscape:window-width="1920"
     inkscape:window-height="1061"
     inkscape:window-x="0"
     inkscape:window-y="0"
     inkscape:window-maximized="1"
     inkscape:current-layer="layer1" />
  <defs
     id="defs12321">
    <linearGradient
       inkscape:collect="always"
       id="linearGradient7826">
      <stop
         style="stop-color:#008283;stop-opacity:1;"
         offset="0"
         id="stop7822" />
      <stop
         style="stop-color:#00f5fb;stop-opacity:1;"
         offset="1"
         id="stop7824" />
    </linearGradient>
    <linearGradient
       inkscape:collect="always"
       id="linearGradient1022">
      <stop
         style="stop-color:#426c80;stop-opacity:1;"
         offset="0"
         id="stop1018" />
      <stop
         style="stop-color:#203440;stop-opacity:1;"
         offset="0.46168223"
         id="stop1020" />
    </linearGradient>
    <linearGradient
       inkscape:collect="always"
       id="linearGradient34815">
      <stop
         style="stop-color:#416b7f;stop-opacity:1;"
         offset="0"
         id="stop34813" />
      <stop
         style="stop-color:#213541;stop-opacity:1;"
         offset="1"
         id="stop34811" />
    </linearGradient>
    <linearGradient
       inkscape:collect="always"
       id="linearGradient29302">
      <stop
         style="stop-color:#345564;stop-opacity:1;"
         offset="0"
         id="stop29298" />
      <stop
         style="stop-color:#213643;stop-opacity:1;"
         offset="1"
         id="stop29300" />
    </linearGradient>
    <linearGradient
       inkscape:collect="always"
       id="linearGradient28121">
      <stop
         style="stop-color:#426c80;stop-opacity:1;"
         offset="0"
         id="stop28117" />
      <stop
         style="stop-color:#203440;stop-opacity:1;"
         offset="1"
         id="stop28119" />
    </linearGradient>
    <linearGradient
       inkscape:collect="always"
       id="linearGradient20308">
      <stop
         style="stop-color:#00f5fb;stop-opacity:1;"
         offset="0.27154753"
         id="stop20306" />
      <stop
         style="stop-color:#006363;stop-opacity:1;"
         offset="0.97204649"
         id="stop20304" />
    </linearGradient>
    <rect
       x="966.58131"
       y="854.48335"
       width="2189.0847"
       height="1104.0601"
       id="rect1031" />
    <radialGradient
       inkscape:collect="always"
       xlink:href="#linearGradient20308"
       id="radialGradient20310"
       cx="524.67426"
       cy="632.39807"
       fx="524.67426"
       fy="632.39807"
       r="56.608829"
       gradientUnits="userSpaceOnUse"
       gradientTransform="translate(103.74247,3.3465587)" />
    <linearGradient
       inkscape:collect="always"
       xlink:href="#linearGradient28121"
       id="linearGradient28123"
       x1="204.30098"
       y1="762.33647"
       x2="517.11317"
       y2="762.33647"
       gradientUnits="userSpaceOnUse"
       gradientTransform="matrix(2.9094465,0,0,2.4631474,-499.81979,-1358.749)" />
    <linearGradient
       inkscape:collect="always"
       xlink:href="#linearGradient29302"
       id="linearGradient29304"
       x1="529.72888"
       y1="640.5649"
       x2="886.10281"
       y2="640.5649"
       gradientUnits="userSpaceOnUse"
       gradientTransform="translate(103.74247,3.3465587)" />
    <linearGradient
       inkscape:collect="always"
       xlink:href="#linearGradient34815"
       id="linearGradient34817"
       x1="220.54389"
       y1="941.69229"
       x2="255.7571"
       y2="941.69229"
       gradientUnits="userSpaceOnUse"
       gradientTransform="matrix(1.7192566,0,0,1.696739,-245.62525,-671.72533)" />
    <linearGradient
       inkscape:collect="always"
       xlink:href="#linearGradient34815"
       id="linearGradient34961"
       gradientUnits="userSpaceOnUse"
       x1="220.54389"
       y1="941.69229"
       x2="255.7571"
       y2="941.69229"
       gradientTransform="matrix(2.403438,0,0,2.3719595,-286.67146,-1281.8286)" />
    <rect
       x="443.3884"
       y="394.95801"
       width="2174.3567"
       height="1533.0715"
       id="rect40952" />
    <linearGradient
       inkscape:collect="always"
       xlink:href="#linearGradient1022"
       id="linearGradient1016"
       gradientUnits="userSpaceOnUse"
       gradientTransform="matrix(2.9094465,0,0,2.4631474,-459.66143,-1385.5212)"
       x1="204.30098"
       y1="762.33647"
       x2="517.11317"
       y2="762.33647" />
    <linearGradient
       inkscape:collect="always"
       xlink:href="#linearGradient7826"
       id="linearGradient7828"
       x1="250.6079"
       y1="537.1615"
       x2="363.46001"
       y2="537.1615"
       gradientUnits="userSpaceOnUse" />
  </defs>
  <g
     inkscape:label="Layer 1"
     inkscape:groupmode="layer"
     id="layer1">
    <g
       id="g15920"
       transform="translate(-10.636269,-45.058374)">
      <path
         style="fill:url(#linearGradient1016);fill-opacity:1;stroke:#000000;stroke-width:4;stroke-linecap:butt;stroke-linejoin:miter;stroke-dasharray:none;stroke-opacity:1"
         d="M 1039.0328,804.24564 V 406.00621 L 835.37569,180.20634 H 140.56024 v 624.0393 z"
         id="path1014"
         sodipodi:nodetypes="cccccc" />
      <path
         style="fill:url(#linearGradient28123);fill-opacity:1;stroke:#000000;stroke-width:4;stroke-linecap:butt;stroke-linejoin:miter;stroke-dasharray:none;stroke-opacity:1"
         d="M 998.87442,831.01785 V 432.77842 L 795.21733,206.97855 H 100.40188 v 624.0393 z"
         id="path18786"
         sodipodi:nodetypes="cccccc" />
      <g
         id="g458"
         transform="matrix(0.99949691,0,0,1.1009695,-464.65636,56.777441)"
         style="stroke-width:3.81313;stroke-dasharray:none">
        <path
           style="fill:url(#linearGradient29304);fill-opacity:1;stroke:#000000;stroke-width:3.81313;stroke-linecap:butt;stroke-linejoin:miter;stroke-dasharray:none;stroke-opacity:1"
           d="m 667.90169,601.92859 h 307.42298 l 12.52061,21.68635 v 35.19367 l -50.44064,27.08573 H 640.81595 l 23.02285,-13.54288 16.25144,-28.44001 z"
           id="path18844"
           sodipodi:nodetypes="ccccccccc" />
        <circle
           style="fill:url(#radialGradient20310);fill-opacity:1;stroke:#000000;stroke-width:3.81313;stroke-linejoin:miter;stroke-dasharray:none;stroke-opacity:1"
           id="path18842"
           cx="628.41675"
           cy="635.74463"
           r="54.608829" />
      </g>
      <path
         style="fill:url(#linearGradient34817);fill-opacity:1;stroke:#000000;stroke-width:4;stroke-linecap:butt;stroke-linejoin:miter;stroke-dasharray:none;stroke-opacity:1"
         d="m 136.9848,861.38301 v 62.57826 l 39.09593,66.82916 h 13.52495 l -18.47067,-68.03064 v -61.25848 z"
         id="path34809" />
      <path
         style="fill:url(#linearGradient34961);fill-opacity:1;stroke:#000000;stroke-width:4;stroke-linecap:butt;stroke-linejoin:miter;stroke-dasharray:none;stroke-opacity:1"
         d="m 248.19898,861.38301 v 87.48141 l 54.65421,93.42408 h 18.90725 l -25.82112,-95.10369 v -85.63643 z"
         id="path34959" />
      <rect
         style="fill:#b3b3b3;stroke:#000000;stroke-width:4;stroke-dasharray:none;stop-color:#000000"
         id="rect40896"
         width="524.00439"
         height="232.37834"
         x="62.239738"
         y="127.82825"
         ry="0" />
      <g
         aria-label="net"
         transform="matrix(0.26458333,0,0,0.26458333,-42.300051,37.197718)"
         id="text40950"
         style="font-size:600px;line-height:1.25;font-family:'Universal Union';-inkscape-font-specification:'Universal Union';white-space:pre;shape-inside:url(#rect40952);display:inline">
        <path
           d="m 668.38867,788.70703 v -225 h 225 v 225 z m -225,281.24997 V 469.95703 l 206.25,206.25 V 1069.957 Z m 468.75,0 V 469.95703 l 131.25003,131.25 V 1069.957 Z"
           id="path14775" />
        <path
           d="M 1305.8887,1069.957 V 957.45703 h 375 V 1069.957 Z m 0,-187.49997 v -112.5 h 112.5 v 112.5 z m -225,187.49997 V 469.95703 h 206.25 V 1069.957 Z m 225,-431.24997 v -168.75 h 206.25 l 168.75,168.75 z"
           id="path14777" />
        <path
           d="M 1868.3887,1069.957 V 713.70703 h 187.5 V 1069.957 Z m -150,-374.99997 v -225 h 375 l 225,225 z"
           id="path14779" />
      </g>
      <g
         id="g13813"
         transform="matrix(0.73465356,0,0,0.73465356,78.023922,101.04426)"
         style="stroke-width:5.44474;stroke-dasharray:none">
        <path
           style="fill:url(#linearGradient7828);fill-opacity:1;stroke:#000000;stroke-width:5.44474;stroke-linecap:butt;stroke-linejoin:miter;stroke-dasharray:none;stroke-opacity:1"
           d="m 252.6079,397.54682 v 302.89283 h 108.85211 v -99.38668 l -15.63462,-9.02666 v -46.58259 l -24.20835,-6.4866 V 475.6364 l 25.18942,6.74947 v -13.84854 l 11.40198,4.21662 v 30.09548 h 3.25157 V 373.88334 H 252.6079 Z"
           id="path7408"
           sodipodi:nodetypes="cccccccccccccccc" />
        <path
           style="fill:#00ebf1;fill-opacity:1;stroke:#000000;stroke-width:5.44474;stroke-linecap:butt;stroke-linejoin:miter;stroke-dasharray:none;stroke-opacity:1"
           d="m 253.49527,494.86298 c 0,0 -11.11378,44.64871 -21.29715,65.07464 -14.15641,28.39512 -34.17627,53.66352 -54.42606,78.08958 -18.33343,22.11448 -60.34192,61.52509 -60.34192,61.52509 0,0 46.13109,-31.74223 65.07463,-52.05971 22.23219,-23.84465 42.69257,-50.5227 55.60922,-80.45592 9.74584,-22.58513 15.38128,-72.17368 15.38128,-72.17368 z"
           id="path13248"
           sodipodi:nodetypes="csscssc" />
        <path
           style="fill:#00ebf1;fill-opacity:1;stroke:#000000;stroke-width:5.44474;stroke-linecap:butt;stroke-linejoin:miter;stroke-dasharray:none;stroke-opacity:1"
           d="m 361.50863,494.86298 c 0,0 11.11378,44.64871 21.29715,65.07464 14.15641,28.39512 34.17627,53.66352 54.42606,78.08958 18.33343,22.11448 60.34192,61.52509 60.34192,61.52509 0,0 -46.13109,-31.74223 -65.07463,-52.05971 -22.23219,-23.84465 -42.69257,-50.5227 -55.60922,-80.45592 -9.74584,-22.58513 -15.38128,-72.17368 -15.38128,-72.17368 z"
           id="path13802"
           sodipodi:nodetypes="csscssc" />
        <path
           style="fill:#00ebf1;fill-opacity:1;stroke:#000000;stroke-width:5.44474;stroke-linecap:butt;stroke-linejoin:miter;stroke-dasharray:none;stroke-opacity:1"
           d="m 361.69856,376.47159 c 0,0 11.08261,58.53852 21.23742,85.31877 14.11671,37.22858 34.08042,70.35775 54.27342,102.38254 18.28202,28.99409 60.1727,80.66499 60.1727,80.66499 0,0 -46.00172,-41.61695 -64.89213,-68.25502 -22.16984,-31.2625 -42.57284,-66.23985 -55.45327,-105.48502 -9.71851,-29.61116 -15.33814,-94.62626 -15.33814,-94.62626 z"
           id="path13804"
           sodipodi:nodetypes="csscssc" />
        <path
           style="fill:#00ebf1;fill-opacity:1;stroke:#000000;stroke-width:5.44474;stroke-linecap:butt;stroke-linejoin:miter;stroke-dasharray:none;stroke-opacity:1"
           d="m 253.14612,376.47159 c 0,0 -11.08261,58.53852 -21.23742,85.31877 -14.11671,37.22858 -34.08042,70.35775 -54.27342,102.38254 -18.28202,28.99409 -60.1727,80.66499 -60.1727,80.66499 0,0 46.00172,-41.61695 64.89213,-68.25502 22.16984,-31.2625 42.57284,-66.23985 55.45327,-105.48502 9.71851,-29.61116 15.33814,-94.62626 15.33814,-94.62626 z"
           id="path13806"
           sodipodi:nodetypes="csscssc" />
      </g>
      <rect
         style="fill:#00ebf1;fill-opacity:1;stroke:#000000;stroke-width:4;stroke-dasharray:none;stop-color:#000000"
         id="rect13867"
         width="29.579409"
         height="37.861614"
         x="289.7793"
         y="622.59973" />
      <rect
         style="fill:#00ebf1;fill-opacity:1;stroke:#000000;stroke-width:4;stroke-dasharray:none;stop-color:#000000"
         id="rect13869"
         width="269.76392"
         height="23.663502"
         x="169.90405"
         y="666.50208" />
    </g>
  </g>
</svg>
