<?xml version="1.0" encoding="UTF-8" standalone="no"?>
<!-- Created with Inkscape (http://www.inkscape.org/) -->

<svg
   width="1080mm"
   height="1080mm"
   viewBox="0 0 1080 1080"
   version="1.1"
   id="svg12324"
   inkscape:version="1.2.2 (b0a8486541, 2022-12-01)"
   sodipodi:docname="combine-sigil.svg"
   xml:space="preserve"
   xmlns:inkscape="http://www.inkscape.org/namespaces/inkscape"
   xmlns:sodipodi="http://sodipodi.sourceforge.net/DTD/sodipodi-0.dtd"
   xmlns:xlink="http://www.w3.org/1999/xlink"
   xmlns="http://www.w3.org/2000/svg"
   xmlns:svg="http://www.w3.org/2000/svg"><sodipodi:namedview
     id="namedview12326"
     pagecolor="#ffffff"
     bordercolor="#666666"
     borderopacity="1.0"
     inkscape:showpageshadow="2"
     inkscape:pageopacity="0.0"
     inkscape:pagecheckerboard="0"
     inkscape:deskcolor="#d1d1d1"
     inkscape:document-units="mm"
     showgrid="false"
     inkscape:zoom="0.13417287"
     inkscape:cx="2858.2529"
     inkscape:cy="2194.9296"
     inkscape:window-width="1920"
     inkscape:window-height="1061"
     inkscape:window-x="0"
     inkscape:window-y="0"
     inkscape:window-maximized="1"
     inkscape:current-layer="layer1" /><defs
     id="defs12321"><linearGradient
       inkscape:collect="always"
       id="linearGradient26545"><stop
         style="stop-color:#976ced;stop-opacity:1;"
         offset="0"
         id="stop26541" /><stop
         style="stop-color:#209dfe;stop-opacity:1;"
         offset="1"
         id="stop26543" /></linearGradient><linearGradient
       inkscape:collect="always"
       id="linearGradient23623"><stop
         style="stop-color:#4d869c;stop-opacity:1;"
         offset="0"
         id="stop23619" /><stop
         style="stop-color:#0f171e;stop-opacity:1;"
         offset="0.32960871"
         id="stop23621" /></linearGradient><linearGradient
       inkscape:collect="always"
       id="linearGradient20179"><stop
         style="stop-color:#4e879d;stop-opacity:1;"
         offset="0"
         id="stop20175" /><stop
         style="stop-color:#17222d;stop-opacity:1;"
         offset="0.77206725"
         id="stop20177" /></linearGradient><rect
       x="966.58131"
       y="854.48335"
       width="2189.0847"
       height="1104.0601"
       id="rect1031" /><rect
       x="443.3884"
       y="394.95801"
       width="2174.3567"
       height="1533.0715"
       id="rect40952" /><linearGradient
       inkscape:collect="always"
       xlink:href="#linearGradient20179"
       id="linearGradient20181"
       x1="55.298473"
       y1="540"
       x2="1024.7016"
       y2="540"
       gradientUnits="userSpaceOnUse" /><linearGradient
       inkscape:collect="always"
       xlink:href="#linearGradient23623"
       id="linearGradient23625"
       x1="627.29725"
       y1="639.50619"
       x2="872.82996"
       y2="856.02722"
       gradientUnits="userSpaceOnUse" /><linearGradient
       inkscape:collect="always"
       xlink:href="#linearGradient26545"
       id="linearGradient26547"
       x1="568.882"
       y1="642.85852"
       x2="736.1601"
       y2="597.89789"
       gradientUnits="userSpaceOnUse"
       gradientTransform="translate(-59.158789,-4.9823854)" /></defs><g
     inkscape:label="Layer 1"
     inkscape:groupmode="layer"
     id="layer1"><path
       id="rect17011"
       style="fill:url(#linearGradient20181);stroke:#000000;stroke-width:4;stop-color:#000000;fill-opacity:1;stroke-dasharray:none"
       d="M 217.60267,56.675726 558.67074,397.7438 c 25.16379,-8.1149 51.43755,-12.26268 77.87742,-12.29434 140.68529,6e-5 254.73323,114.048 254.73329,254.73329 -6e-5,140.68529 -114.048,254.73323 -254.73329,254.73329 -140.68529,-6e-5 -254.73323,-114.048 -254.73329,-254.73329 0.0256,-26.21872 4.09885,-52.27632 12.07575,-77.25213 L 58.082501,223.77602 268.99592,1023.2612 H 1023.2523 V 302.47003 Z"
       sodipodi:nodetypes="cccssccccccc" /><path
       style="fill:url(#linearGradient23625);stroke-width:4;fill-opacity:1;stroke:#000000;stroke-opacity:1;stroke-dasharray:none"
       d="m 627.29725,825.26382 v -40.94947 h 5.83611 c 10.09494,0 31.15615,-4.32247 44.38529,-9.10929 37.85445,-13.69737 71.7801,-47.62301 85.47747,-85.47746 11.92678,-32.96125 11.92678,-67.48158 0,-100.44283 -13.69737,-37.85445 -47.62302,-71.78009 -85.47747,-85.47746 -13.22914,-4.78682 -34.29035,-9.10929 -44.38529,-9.10929 h -5.83611 v -40.94947 -40.94947 l 16.18909,1.04666 c 91.24772,5.89935 171.12107,68.57704 199.21636,156.32795 8.11661,25.35083 10.01331,38.48363 10.01331,69.33249 0,30.84887 -1.8967,43.98167 -10.01331,69.3325 -28.09529,87.75089 -107.96864,150.4286 -199.21636,156.32794 l -16.18909,1.04667 z"
       id="path22511"
       sodipodi:nodetypes="ccsssssscccssssscc" /><circle
       style="fill:url(#linearGradient26547);fill-opacity:1;stroke:#000000;stroke-width:4;stroke-dasharray:none;stroke-opacity:1;stop-color:#000000"
       id="path25749"
       r="112.40163"
       cy="637.87616"
       cx="624.12488" /></g></svg>
